<svg width="990" height="210" viewBox="0 0 990 210" fill="none" xmlns="http://www.w3.org/2000/svg">
<g opacity="0.5">
<mask id="path-1-inside-1" fill="white">
<path fill-rule="evenodd" clip-rule="evenodd" d="M114 96.9997C114 96.9997 306.477 -115.458 507.059 96.9997C507.059 96.9997 683.327 -116.754 891 96.9997"/>
</mask>
<path fill-rule="evenodd" clip-rule="evenodd" d="M114 96.9997C114 96.9997 306.477 -115.458 507.059 96.9997C507.059 96.9997 683.327 -116.754 891 96.9997" fill="black" fill-opacity="0.01"/>
<path d="M507.059 96.9997L506.332 97.6862L507.109 98.5101L507.83 97.6359L507.059 96.9997ZM114 96.9997C114.741 97.6711 114.741 97.6707 114.743 97.6694C114.744 97.6679 114.746 97.6659 114.749 97.6629C114.754 97.6569 114.762 97.6478 114.774 97.6355C114.796 97.6108 114.83 97.5735 114.876 97.5239C114.967 97.4246 115.105 97.2759 115.288 97.0802C115.655 96.6888 116.203 96.1095 116.928 95.3617C118.379 93.8662 120.535 91.6968 123.353 89.0092C128.988 83.6336 137.265 76.1861 147.825 67.9099C168.95 51.3538 199.186 31.4996 235.652 18.2679C272.113 5.03838 314.783 -1.56456 360.812 8.34651C406.836 18.2565 456.302 44.6948 506.332 97.6862L507.786 96.3132C457.524 43.0755 407.712 16.3993 361.233 6.39132C314.759 -3.61556 271.701 3.06013 234.97 16.3879C198.245 29.7134 167.824 49.6952 146.592 66.3357C135.973 74.6577 127.647 82.1487 121.972 87.562C119.135 90.2688 116.96 92.4565 115.493 93.9694C114.759 94.7259 114.202 95.3136 113.828 95.7132C113.641 95.9131 113.5 96.0658 113.405 96.1692C113.357 96.2208 113.321 96.2601 113.297 96.2867C113.285 96.3001 113.275 96.3102 113.269 96.3171C113.266 96.3206 113.263 96.3234 113.262 96.3251C113.26 96.3271 113.259 96.3283 114 96.9997ZM507.059 96.9997C507.83 97.6359 507.831 97.6355 507.832 97.6343C507.833 97.6328 507.834 97.6308 507.837 97.6278C507.842 97.6218 507.849 97.6127 507.86 97.6003C507.88 97.5756 507.911 97.5382 507.953 97.4883C508.037 97.3886 508.163 97.2392 508.331 97.0425C508.667 96.6491 509.171 96.0667 509.837 95.3147C511.171 93.8108 513.156 91.6292 515.759 88.926C520.964 83.5195 528.636 76.0289 538.491 67.7045C558.205 51.052 586.632 31.0838 621.509 17.7764C656.377 4.47208 697.68 -2.17108 743.183 7.7992C788.686 17.7694 838.474 44.3711 890.283 97.6965L891.717 96.3029C839.689 42.7515 789.567 15.9148 743.611 5.84554C697.657 -4.22359 655.954 2.49286 620.796 15.9078C585.646 29.3196 557.026 49.4302 537.2 66.1767C527.285 74.5518 519.563 82.0907 514.318 87.5389C511.695 90.2631 509.691 92.465 508.341 93.9879C507.666 94.7494 507.154 95.3411 506.81 95.7436C506.638 95.9448 506.508 96.0987 506.421 96.2028C506.377 96.2549 506.344 96.2945 506.322 96.3214C506.311 96.3348 506.302 96.3451 506.297 96.3521C506.294 96.3556 506.291 96.3585 506.29 96.3602C506.288 96.3623 506.287 96.3635 507.059 96.9997Z" fill="white" mask="url(#path-1-inside-1)"/>
</g>
<path d="M27.5343 162.356C30.1263 163.508 31.4223 165.44 31.4223 168.152C31.4223 170.528 30.6783 172.46 29.1903 173.948C27.6303 175.508 25.4943 176.288 22.7823 176.288C21.6543 176.288 20.4783 176.18 19.2543 175.964C18.2943 175.796 17.3343 175.568 16.3743 175.28L15.3303 174.92V168.44H17.0943C17.5023 168.44 17.7423 168.644 17.8143 169.052C17.8623 169.244 17.9223 169.832 17.9943 170.816L18.1023 172.4C19.9743 173.072 21.4383 173.408 22.4943 173.408C23.5503 173.408 24.4383 173.288 25.1583 173.048C25.8543 172.832 26.4063 172.508 26.8143 172.076C27.7263 171.236 28.1823 170.096 28.1823 168.656C28.1823 167.264 27.5343 166.208 26.2383 165.488C25.6623 165.128 25.0143 164.84 24.2943 164.624C21.7263 163.832 20.2143 163.328 19.7583 163.112C19.0623 162.8 18.4023 162.368 17.7783 161.816C16.5063 160.688 15.8703 159.08 15.8703 156.992C15.8703 155.096 16.5543 153.464 17.9223 152.096C19.4103 150.656 21.3303 149.936 23.6823 149.936C26.1783 149.936 28.5903 150.416 30.9183 151.376V157.316H29.1903C28.7583 157.316 28.5063 157.112 28.4343 156.704C28.4343 156.632 28.4103 156.392 28.3623 155.984C28.3383 155.552 28.2783 154.724 28.1823 153.5C26.5023 153.044 25.0863 152.816 23.9343 152.816C22.3743 152.816 21.1743 153.2 20.3343 153.968C19.5183 154.712 19.1103 155.672 19.1103 156.848C19.1103 158.12 19.7583 159.116 21.0543 159.836C21.5823 160.172 22.2543 160.472 23.0703 160.736C25.2303 161.456 26.7423 161.996 27.6063 162.356H27.5343ZM41.5332 157.496C42.5893 157.496 43.5853 157.676 44.5213 158.036C45.4813 158.396 46.2733 158.912 46.8973 159.584C47.6173 160.352 48.1453 161.204 48.4813 162.14C48.8653 163.22 49.0573 164.372 49.0573 165.596C49.0573 166.148 49.0093 166.484 48.9133 166.604C48.7933 166.772 48.5773 166.856 48.2653 166.856H36.1693C36.1693 168.008 36.3133 169.016 36.6013 169.88C36.8413 170.624 37.2493 171.32 37.8253 171.968C38.3533 172.568 38.9533 173 39.6253 173.264C40.3453 173.552 41.1133 173.696 41.9293 173.696C42.7933 173.696 43.4893 173.612 44.0173 173.444C44.5213 173.276 45.0253 173.072 45.5293 172.832C46.0573 172.568 46.4173 172.376 46.6093 172.256C46.9213 172.064 47.1613 171.968 47.3293 171.968C47.5933 171.968 47.7973 172.076 47.9413 172.292L48.8413 173.48C48.5053 173.912 48.0253 174.32 47.4013 174.704C46.6813 175.16 46.0933 175.46 45.6373 175.604C44.9173 175.844 44.2693 176.012 43.6933 176.108C42.9733 176.228 42.3133 176.288 41.7133 176.288C40.4653 176.288 39.3013 176.072 38.2213 175.64C37.1893 175.232 36.2653 174.596 35.4493 173.732C34.6813 172.94 34.0813 171.92 33.6493 170.672C33.2173 169.448 33.0013 168.056 33.0013 166.496C33.0013 165.248 33.2053 164.072 33.6133 162.968C34.0213 161.84 34.5853 160.88 35.3053 160.088C36.0493 159.272 36.9493 158.636 38.0053 158.18C39.0613 157.724 40.2373 157.496 41.5332 157.496ZM41.6053 159.836C40.0453 159.836 38.8333 160.28 37.9693 161.168C37.0813 162.104 36.5293 163.352 36.3133 164.912H46.2133C46.2133 164.168 46.1053 163.496 45.8893 162.896C45.6253 162.152 45.3373 161.612 45.0253 161.276C44.6173 160.844 44.1253 160.496 43.5493 160.232C42.9973 159.992 42.3373 159.872 41.5693 159.872L41.6053 159.836ZM66.992 173.696C67.16 173.72 67.292 173.804 67.388 173.948C67.484 174.068 67.532 174.212 67.532 174.38V175.928H63.788C63.572 175.928 63.32 175.88 63.032 175.784C62.864 175.736 62.744 175.544 62.672 175.208L62.312 173.48L60.872 174.668C60.464 175.004 59.984 175.292 59.432 175.532C58.904 175.772 58.376 175.952 57.848 176.072C57.368 176.192 56.72 176.252 55.904 176.252C55.232 176.252 54.584 176.144 53.96 175.928C53.216 175.664 52.676 175.376 52.34 175.064C51.908 174.68 51.548 174.176 51.26 173.552C50.996 173 50.864 172.28 50.864 171.392C50.864 170.624 51.056 169.928 51.44 169.304C51.872 168.608 52.52 168.008 53.384 167.504C54.344 166.952 55.496 166.52 56.84 166.208C58.232 165.896 59.984 165.74 62.096 165.74V164.336C62.096 162.92 61.784 161.84 61.16 161.096C60.536 160.352 59.636 159.98 58.46 159.98C57.692 159.98 57.032 160.088 56.48 160.304C55.856 160.544 55.4 160.76 55.112 160.952C54.968 161.048 54.8 161.156 54.608 161.276C54.44 161.372 54.26 161.48 54.068 161.6C53.804 161.792 53.528 161.888 53.24 161.888C52.976 161.888 52.784 161.84 52.664 161.744C52.52 161.624 52.4 161.48 52.304 161.312L51.728 160.304C52.664 159.392 53.744 158.672 54.968 158.144C56.072 157.664 57.368 157.424 58.856 157.424C59.936 157.424 60.848 157.592 61.592 157.928C62.408 158.288 63.068 158.744 63.572 159.296C64.1 159.848 64.508 160.568 64.796 161.456C65.06 162.248 65.192 163.184 65.192 164.264V173.372C66.344 173.612 66.944 173.744 66.992 173.768V173.696ZM62.024 167.792C60.464 167.792 59.216 167.876 58.28 168.044C57.368 168.212 56.528 168.464 55.76 168.8C55.088 169.112 54.608 169.472 54.32 169.88C54.032 170.312 53.888 170.768 53.888 171.248C53.888 171.632 53.972 172.04 54.14 172.472C54.284 172.832 54.5 173.12 54.788 173.336C55.076 173.552 55.388 173.708 55.724 173.804C56.132 173.924 56.528 173.984 56.912 173.984C57.392 173.984 57.896 173.924 58.424 173.804C58.904 173.684 59.348 173.528 59.756 173.336C60.116 173.168 60.512 172.904 60.944 172.544C61.184 172.352 61.544 172.016 62.024 171.536V167.792ZM75.333 161.492C76.677 158.78 78.525 157.424 80.877 157.424C81.813 157.424 82.641 157.64 83.361 158.072L82.965 160.484C82.893 160.796 82.737 160.952 82.497 160.952C82.329 160.952 82.041 160.892 81.633 160.772C81.225 160.652 80.733 160.592 80.157 160.592C78.045 160.592 76.485 161.864 75.477 164.408V173.408L77.529 173.804C77.889 173.876 78.069 174.104 78.069 174.488V176H69.681V174.488C69.681 174.104 69.861 173.876 70.221 173.804L72.273 173.408V160.412C71.121 160.196 70.437 160.052 70.221 159.98C69.861 159.908 69.681 159.68 69.681 159.296V157.784H74.109C74.445 157.784 74.673 157.844 74.793 157.964C74.913 158.084 75.009 158.312 75.081 158.648L75.297 161.492H75.333ZM99.0559 173.444C97.5439 175.316 95.2879 176.252 92.2879 176.252C89.9839 176.252 88.0879 175.424 86.5999 173.768C85.0399 172.016 84.2599 169.712 84.2599 166.856C84.2599 164.072 84.9919 161.828 86.4559 160.124C87.9919 158.372 90.1279 157.496 92.8639 157.496C94.2319 157.496 96.0319 157.928 98.2639 158.792V163.544H96.8239C96.4879 163.544 96.2839 163.376 96.2119 163.04C96.1879 162.968 96.1399 162.512 96.0679 161.672L95.9599 160.484C95.6959 160.388 95.4319 160.316 95.1679 160.268C94.9279 160.22 94.7599 160.184 94.6639 160.16C94.0159 160.064 93.3439 160.016 92.6479 160.016C92.0239 160.016 91.3639 160.172 90.6679 160.484C90.0199 160.772 89.4559 161.216 88.9759 161.816C88.0639 163.016 87.6079 164.696 87.6079 166.856C87.6079 169.016 88.0879 170.72 89.0479 171.968C89.9839 173.168 91.2679 173.768 92.8999 173.768C94.4119 173.768 95.7439 173.264 96.8959 172.256C97.0879 172.064 97.3279 171.968 97.6159 171.968C97.8799 171.968 98.0719 172.064 98.1919 172.256L99.0559 173.444ZM106.872 160.232C108.624 158.408 110.568 157.496 112.704 157.496C114.648 157.496 116.16 158.12 117.24 159.368C118.296 160.616 118.824 162.296 118.824 164.408V173.372C119.976 173.588 120.66 173.732 120.876 173.804C121.236 173.876 121.416 174.104 121.416 174.488V176H115.62V164.408C115.62 161.504 114.336 160.052 111.768 160.052C110.016 160.052 108.384 160.904 106.872 162.608V173.408L107.304 173.48L108.888 173.804C109.272 173.876 109.464 174.104 109.464 174.488V176H101.04V174.488C101.04 174.104 101.232 173.876 101.616 173.804L103.632 173.408V152.132C102.264 151.916 101.472 151.772 101.256 151.7C100.872 151.628 100.68 151.4 100.68 151.016V149.504H106.872V160.232ZM145.243 150.728C148.795 151.88 150.571 154.376 150.571 158.216C150.571 160.688 149.755 162.632 148.123 164.048C146.371 165.584 143.995 166.352 140.995 166.352H137.323V173.372C137.515 173.444 138.211 173.588 139.411 173.804C139.747 173.876 139.915 174.104 139.915 174.488V176H131.275V174.488C131.275 174.104 131.455 173.876 131.815 173.804L133.867 173.408V152.852C132.715 152.636 132.031 152.492 131.815 152.42C131.455 152.348 131.275 152.12 131.275 151.736V150.224H140.995C142.603 150.224 144.019 150.404 145.243 150.764V150.728ZM147.079 158.144C147.079 156.536 146.575 155.264 145.567 154.328C144.583 153.416 143.059 152.96 140.995 152.96H137.323V163.544H140.995C142.939 163.544 144.439 163.064 145.495 162.104C146.575 161.12 147.115 159.812 147.115 158.18L147.079 158.144ZM160.32 173.768C160.704 173.84 160.896 174.068 160.896 174.452V176H152.472V174.452C152.472 174.068 152.664 173.84 153.048 173.768L155.064 173.372V152.096C153.96 151.88 153.288 151.736 153.048 151.664C152.664 151.592 152.472 151.376 152.472 151.016V149.468H158.304V173.336C159.408 173.552 160.08 173.696 160.32 173.768ZM178.754 173.696C178.922 173.72 179.054 173.804 179.15 173.948C179.246 174.068 179.294 174.212 179.294 174.38V175.928H175.55C175.334 175.928 175.082 175.88 174.794 175.784C174.626 175.736 174.506 175.544 174.434 175.208L174.074 173.48L172.634 174.668C172.226 175.004 171.746 175.292 171.194 175.532C170.666 175.772 170.138 175.952 169.61 176.072C169.13 176.192 168.482 176.252 167.666 176.252C166.994 176.252 166.346 176.144 165.722 175.928C164.978 175.664 164.438 175.376 164.102 175.064C163.67 174.68 163.31 174.176 163.022 173.552C162.758 173 162.626 172.28 162.626 171.392C162.626 170.624 162.818 169.928 163.202 169.304C163.634 168.608 164.282 168.008 165.146 167.504C166.106 166.952 167.258 166.52 168.602 166.208C169.994 165.896 171.746 165.74 173.858 165.74V164.336C173.858 162.92 173.546 161.84 172.922 161.096C172.298 160.352 171.398 159.98 170.222 159.98C169.454 159.98 168.794 160.088 168.242 160.304C167.618 160.544 167.162 160.76 166.874 160.952C166.73 161.048 166.562 161.156 166.37 161.276C166.202 161.372 166.022 161.48 165.83 161.6C165.566 161.792 165.29 161.888 165.002 161.888C164.738 161.888 164.546 161.84 164.426 161.744C164.282 161.624 164.162 161.48 164.066 161.312L163.49 160.304C164.426 159.392 165.506 158.672 166.73 158.144C167.834 157.664 169.13 157.424 170.618 157.424C171.698 157.424 172.61 157.592 173.354 157.928C174.17 158.288 174.83 158.744 175.334 159.296C175.862 159.848 176.27 160.568 176.558 161.456C176.822 162.248 176.954 163.184 176.954 164.264V173.372C178.106 173.612 178.706 173.744 178.754 173.768V173.696ZM173.786 167.792C172.226 167.792 170.978 167.876 170.042 168.044C169.13 168.212 168.29 168.464 167.522 168.8C166.85 169.112 166.37 169.472 166.082 169.88C165.794 170.312 165.65 170.768 165.65 171.248C165.65 171.632 165.734 172.04 165.902 172.472C166.046 172.832 166.262 173.12 166.55 173.336C166.838 173.552 167.15 173.708 167.486 173.804C167.894 173.924 168.29 173.984 168.674 173.984C169.154 173.984 169.658 173.924 170.186 173.804C170.666 173.684 171.11 173.528 171.518 173.336C171.878 173.168 172.274 172.904 172.706 172.544C172.946 172.352 173.306 172.016 173.786 171.536V167.792ZM195.771 173.444C194.259 175.316 192.003 176.252 189.003 176.252C186.699 176.252 184.803 175.424 183.315 173.768C181.755 172.016 180.975 169.712 180.975 166.856C180.975 164.072 181.707 161.828 183.171 160.124C184.707 158.372 186.843 157.496 189.579 157.496C190.947 157.496 192.747 157.928 194.979 158.792V163.544H193.539C193.203 163.544 192.999 163.376 192.927 163.04C192.903 162.968 192.855 162.512 192.783 161.672L192.675 160.484C192.411 160.388 192.147 160.316 191.883 160.268C191.643 160.22 191.475 160.184 191.379 160.16C190.731 160.064 190.059 160.016 189.363 160.016C188.739 160.016 188.079 160.172 187.383 160.484C186.735 160.772 186.171 161.216 185.691 161.816C184.779 163.016 184.323 164.696 184.323 166.856C184.323 169.016 184.803 170.72 185.763 171.968C186.699 173.168 187.983 173.768 189.615 173.768C191.127 173.768 192.459 173.264 193.611 172.256C193.803 172.064 194.043 171.968 194.331 171.968C194.595 171.968 194.787 172.064 194.907 172.256L195.771 173.444ZM206.697 157.496C207.753 157.496 208.749 157.676 209.685 158.036C210.645 158.396 211.437 158.912 212.061 159.584C212.781 160.352 213.309 161.204 213.645 162.14C214.029 163.22 214.221 164.372 214.221 165.596C214.221 166.148 214.173 166.484 214.077 166.604C213.957 166.772 213.741 166.856 213.429 166.856H201.333C201.333 168.008 201.477 169.016 201.765 169.88C202.005 170.624 202.413 171.32 202.989 171.968C203.517 172.568 204.117 173 204.789 173.264C205.509 173.552 206.277 173.696 207.093 173.696C207.957 173.696 208.653 173.612 209.181 173.444C209.685 173.276 210.189 173.072 210.693 172.832C211.221 172.568 211.581 172.376 211.773 172.256C212.085 172.064 212.325 171.968 212.493 171.968C212.757 171.968 212.961 172.076 213.105 172.292L214.005 173.48C213.669 173.912 213.189 174.32 212.565 174.704C211.845 175.16 211.257 175.46 210.801 175.604C210.081 175.844 209.433 176.012 208.857 176.108C208.137 176.228 207.477 176.288 206.877 176.288C205.629 176.288 204.465 176.072 203.385 175.64C202.353 175.232 201.429 174.596 200.613 173.732C199.845 172.94 199.245 171.92 198.813 170.672C198.381 169.448 198.165 168.056 198.165 166.496C198.165 165.248 198.369 164.072 198.777 162.968C199.185 161.84 199.749 160.88 200.469 160.088C201.213 159.272 202.113 158.636 203.169 158.18C204.225 157.724 205.401 157.496 206.697 157.496ZM206.769 159.836C205.209 159.836 203.997 160.28 203.133 161.168C202.245 162.104 201.693 163.352 201.477 164.912H211.377C211.377 164.168 211.269 163.496 211.053 162.896C210.789 162.152 210.501 161.612 210.189 161.276C209.781 160.844 209.289 160.496 208.713 160.232C208.161 159.992 207.501 159.872 206.733 159.872L206.769 159.836ZM223.48 157.496C224.728 157.496 226.312 157.82 228.232 158.468V163.148H226.828C226.492 163.148 226.288 162.98 226.216 162.644L226 160.268C224.872 160.004 223.936 159.872 223.192 159.872H223.156C222.172 159.872 221.344 160.136 220.672 160.664C220.024 161.168 219.7 161.72 219.7 162.32C219.7 162.944 219.844 163.4 220.132 163.688C220.612 164.24 221.308 164.66 222.22 164.948L223.3 165.272C223.492 165.32 223.876 165.44 224.452 165.632L226.18 166.28C226.66 166.448 227.164 166.76 227.692 167.216C228.676 167.984 229.168 169.04 229.168 170.384C229.168 172.136 228.58 173.528 227.404 174.56C226.132 175.688 224.524 176.252 222.58 176.252C220.588 176.252 218.62 175.928 216.676 175.28V170.528H217.972C218.26 170.528 218.44 170.672 218.512 170.96L218.728 173.264C219.688 173.744 220.924 173.984 222.436 173.984C223.588 173.984 224.524 173.684 225.244 173.084C225.868 172.532 226.18 171.92 226.18 171.248C226.18 170.552 226.036 170.048 225.748 169.736C225.412 169.352 225.052 169.064 224.668 168.872C224.14 168.608 223.636 168.416 223.156 168.296C221.38 167.72 220.264 167.336 219.808 167.144C219.232 166.88 218.692 166.544 218.188 166.136C217.18 165.296 216.676 164.168 216.676 162.752C216.676 161.312 217.252 160.088 218.404 159.08C219.604 158.024 221.296 157.496 223.48 157.496Z" fill="#E8E8E8"/>
<path fill-rule="evenodd" clip-rule="evenodd" d="M121 35.9998C147.51 35.9998 169 57.4902 169 83.9998C169 110.51 147.51 132 121 132C94.4903 132 72.9999 110.51 72.9999 83.9998C72.9999 57.4902 94.4903 35.9998 121 35.9998Z" fill="#333333"/>
<path fill-rule="evenodd" clip-rule="evenodd" d="M149.266 109.812L146.312 112.766L130 96.4528C129.062 97.2968 128.031 98.0483 126.906 98.703C125.781 99.3601 124.608 99.9224 123.391 100.391C122.171 100.861 120.881 101.212 119.523 101.445C118.163 101.68 116.827 101.797 115.516 101.797C112.327 101.797 109.35 101.188 106.586 99.9685C103.82 98.7514 101.405 97.1099 99.3437 95.0466C97.2805 92.9856 95.6633 90.571 94.4921 87.8046C93.3188 85.0404 92.7343 82.1093 92.7343 79.0155C92.7343 75.8295 93.3188 72.8521 94.4921 70.0859C95.6633 67.3218 97.2805 64.9069 99.3437 62.8436C101.405 60.7826 103.82 59.1653 106.586 57.992C109.35 56.8209 112.327 56.2341 115.516 56.2341C118.609 56.2341 121.538 56.8209 124.305 57.992C127.069 59.1653 129.484 60.7826 131.547 62.8436C133.608 64.9069 135.249 67.3218 136.469 70.0859C137.686 72.8521 138.297 75.8295 138.297 79.0155C138.297 80.3293 138.178 81.6653 137.945 83.0232C137.71 84.3834 137.359 85.6733 136.891 86.8904C136.42 88.1101 135.858 89.2811 135.203 90.406C134.546 91.531 133.797 92.5638 132.953 93.4998L149.266 109.812ZM95.125 79.0155C95.125 81.828 95.6392 84.4537 96.6718 86.8904C97.7023 89.3295 99.1548 91.4849 101.031 93.3593C102.905 95.2358 105.085 96.7123 107.57 97.7888C110.053 98.8677 112.703 99.4061 115.516 99.4061C118.328 99.4061 120.952 98.8677 123.391 97.7888C125.827 96.7123 127.983 95.2358 129.859 93.3593C131.734 91.4849 133.21 89.3295 134.289 86.8904C135.366 84.4537 135.906 81.828 135.906 79.0155C135.906 76.203 135.366 73.5552 134.289 71.07C133.21 68.5872 131.734 66.4076 129.859 64.5311C127.983 62.6568 125.827 61.2044 123.391 60.1716C120.952 59.1411 118.328 58.6248 115.516 58.6248C112.703 58.6248 110.053 59.1411 107.57 60.1716C105.085 61.2044 102.905 62.6568 101.031 64.5311C99.1548 66.4076 97.7023 68.5872 96.6718 71.07C95.6392 73.5552 95.125 76.203 95.125 79.0155Z" fill="#5474FD"/>
<g clip-path="url(#clip0)">
<path d="M414.443 162.356C417.035 163.508 418.331 165.44 418.331 168.152C418.331 170.528 417.587 172.46 416.099 173.948C414.539 175.508 412.403 176.288 409.691 176.288C408.563 176.288 407.387 176.18 406.163 175.964C405.203 175.796 404.243 175.568 403.283 175.28L402.239 174.92V168.44H404.003C404.411 168.44 404.651 168.644 404.723 169.052C404.771 169.244 404.831 169.832 404.903 170.816L405.011 172.4C406.883 173.072 408.347 173.408 409.403 173.408C410.459 173.408 411.347 173.288 412.067 173.048C412.763 172.832 413.315 172.508 413.723 172.076C414.635 171.236 415.091 170.096 415.091 168.656C415.091 167.264 414.443 166.208 413.147 165.488C412.571 165.128 411.923 164.84 411.203 164.624C408.635 163.832 407.123 163.328 406.667 163.112C405.971 162.8 405.311 162.368 404.687 161.816C403.415 160.688 402.779 159.08 402.779 156.992C402.779 155.096 403.463 153.464 404.831 152.096C406.319 150.656 408.239 149.936 410.591 149.936C413.087 149.936 415.499 150.416 417.827 151.376V157.316H416.099C415.667 157.316 415.415 157.112 415.343 156.704C415.343 156.632 415.319 156.392 415.271 155.984C415.247 155.552 415.187 154.724 415.091 153.5C413.411 153.044 411.995 152.816 410.843 152.816C409.283 152.816 408.083 153.2 407.243 153.968C406.427 154.712 406.019 155.672 406.019 156.848C406.019 158.12 406.667 159.116 407.963 159.836C408.491 160.172 409.163 160.472 409.979 160.736C412.139 161.456 413.651 161.996 414.515 162.356H414.443ZM428.441 157.496C429.497 157.496 430.493 157.676 431.429 158.036C432.389 158.396 433.181 158.912 433.805 159.584C434.525 160.352 435.053 161.204 435.389 162.14C435.773 163.22 435.965 164.372 435.965 165.596C435.965 166.148 435.917 166.484 435.821 166.604C435.701 166.772 435.485 166.856 435.173 166.856H423.077C423.077 168.008 423.221 169.016 423.509 169.88C423.749 170.624 424.157 171.32 424.733 171.968C425.261 172.568 425.861 173 426.533 173.264C427.253 173.552 428.021 173.696 428.837 173.696C429.701 173.696 430.397 173.612 430.925 173.444C431.429 173.276 431.933 173.072 432.437 172.832C432.965 172.568 433.325 172.376 433.517 172.256C433.829 172.064 434.069 171.968 434.237 171.968C434.501 171.968 434.705 172.076 434.849 172.292L435.749 173.48C435.413 173.912 434.933 174.32 434.309 174.704C433.589 175.16 433.001 175.46 432.545 175.604C431.825 175.844 431.177 176.012 430.601 176.108C429.881 176.228 429.221 176.288 428.621 176.288C427.373 176.288 426.209 176.072 425.129 175.64C424.097 175.232 423.173 174.596 422.357 173.732C421.589 172.94 420.989 171.92 420.557 170.672C420.125 169.448 419.909 168.056 419.909 166.496C419.909 165.248 420.113 164.072 420.521 162.968C420.929 161.84 421.493 160.88 422.213 160.088C422.957 159.272 423.857 158.636 424.913 158.18C425.969 157.724 427.145 157.496 428.441 157.496ZM428.513 159.836C426.953 159.836 425.741 160.28 424.877 161.168C423.989 162.104 423.437 163.352 423.221 164.912H433.121C433.121 164.168 433.013 163.496 432.797 162.896C432.533 162.152 432.245 161.612 431.933 161.276C431.525 160.844 431.033 160.496 430.457 160.232C429.905 159.992 429.245 159.872 428.477 159.872L428.513 159.836ZM445.908 173.768C446.292 173.84 446.484 174.068 446.484 174.452V176H438.06V174.452C438.06 174.068 438.252 173.84 438.636 173.768L440.652 173.372V152.096C439.548 151.88 438.876 151.736 438.636 151.664C438.252 151.592 438.06 151.376 438.06 151.016V149.468H443.892V173.336C444.996 173.552 445.668 173.696 445.908 173.768ZM456.602 157.496C457.658 157.496 458.654 157.676 459.59 158.036C460.55 158.396 461.342 158.912 461.966 159.584C462.686 160.352 463.214 161.204 463.55 162.14C463.934 163.22 464.126 164.372 464.126 165.596C464.126 166.148 464.078 166.484 463.982 166.604C463.862 166.772 463.646 166.856 463.334 166.856H451.238C451.238 168.008 451.382 169.016 451.67 169.88C451.91 170.624 452.318 171.32 452.894 171.968C453.422 172.568 454.022 173 454.694 173.264C455.414 173.552 456.182 173.696 456.998 173.696C457.862 173.696 458.558 173.612 459.086 173.444C459.59 173.276 460.094 173.072 460.598 172.832C461.126 172.568 461.486 172.376 461.678 172.256C461.99 172.064 462.23 171.968 462.398 171.968C462.662 171.968 462.866 172.076 463.01 172.292L463.91 173.48C463.574 173.912 463.094 174.32 462.47 174.704C461.75 175.16 461.162 175.46 460.706 175.604C459.986 175.844 459.338 176.012 458.762 176.108C458.042 176.228 457.382 176.288 456.782 176.288C455.534 176.288 454.37 176.072 453.29 175.64C452.258 175.232 451.334 174.596 450.518 173.732C449.75 172.94 449.15 171.92 448.718 170.672C448.286 169.448 448.07 168.056 448.07 166.496C448.07 165.248 448.274 164.072 448.682 162.968C449.09 161.84 449.654 160.88 450.374 160.088C451.118 159.272 452.018 158.636 453.074 158.18C454.13 157.724 455.306 157.496 456.602 157.496ZM456.674 159.836C455.114 159.836 453.902 160.28 453.038 161.168C452.15 162.104 451.598 163.352 451.382 164.912H461.282C461.282 164.168 461.174 163.496 460.958 162.896C460.694 162.152 460.406 161.612 460.094 161.276C459.686 160.844 459.194 160.496 458.618 160.232C458.066 159.992 457.406 159.872 456.638 159.872L456.674 159.836ZM481.57 173.444C480.058 175.316 477.802 176.252 474.802 176.252C472.498 176.252 470.602 175.424 469.114 173.768C467.554 172.016 466.774 169.712 466.774 166.856C466.774 164.072 467.506 161.828 468.97 160.124C470.506 158.372 472.642 157.496 475.378 157.496C476.746 157.496 478.546 157.928 480.778 158.792V163.544H479.338C479.002 163.544 478.798 163.376 478.726 163.04C478.702 162.968 478.654 162.512 478.582 161.672L478.474 160.484C478.21 160.388 477.946 160.316 477.682 160.268C477.442 160.22 477.274 160.184 477.178 160.16C476.53 160.064 475.858 160.016 475.162 160.016C474.538 160.016 473.878 160.172 473.182 160.484C472.534 160.772 471.97 161.216 471.49 161.816C470.578 163.016 470.122 164.696 470.122 166.856C470.122 169.016 470.602 170.72 471.562 171.968C472.498 173.168 473.782 173.768 475.414 173.768C476.926 173.768 478.258 173.264 479.41 172.256C479.602 172.064 479.842 171.968 480.13 171.968C480.394 171.968 480.586 172.064 480.706 172.256L481.57 173.444ZM490.142 176.288C488.75 176.288 487.646 175.88 486.83 175.064C486.062 174.296 485.678 173.144 485.678 171.608V160.448H483.482C483.266 160.448 483.098 160.4 482.978 160.304C482.858 160.208 482.798 160.028 482.798 159.764V158.504L485.786 158.108L486.506 152.456C486.506 152.264 486.578 152.12 486.722 152.024C486.842 151.928 487.01 151.88 487.226 151.88H488.846V158.144H494.066V160.484H488.846V171.428C488.846 172.22 489.026 172.796 489.386 173.156C489.746 173.516 490.238 173.696 490.862 173.696C491.126 173.696 491.426 173.648 491.762 173.552C491.978 173.48 492.194 173.384 492.41 173.264C492.482 173.216 492.554 173.168 492.626 173.12C492.698 173.072 492.77 173.024 492.842 172.976C493.034 172.88 493.154 172.832 493.202 172.832C493.37 172.832 493.514 172.928 493.634 173.12L494.57 174.632C493.922 175.184 493.25 175.592 492.554 175.856C491.762 176.144 490.958 176.288 490.142 176.288ZM518.335 150.728C521.887 151.88 523.663 154.376 523.663 158.216C523.663 160.688 522.847 162.632 521.215 164.048C519.463 165.584 517.087 166.352 514.087 166.352H510.415V173.372C510.607 173.444 511.303 173.588 512.503 173.804C512.839 173.876 513.007 174.104 513.007 174.488V176H504.367V174.488C504.367 174.104 504.547 173.876 504.907 173.804L506.959 173.408V152.852C505.807 152.636 505.123 152.492 504.907 152.42C504.547 152.348 504.367 152.12 504.367 151.736V150.224H514.087C515.695 150.224 517.111 150.404 518.335 150.764V150.728ZM520.171 158.144C520.171 156.536 519.667 155.264 518.659 154.328C517.675 153.416 516.151 152.96 514.087 152.96H510.415V163.544H514.087C516.031 163.544 517.531 163.064 518.587 162.104C519.667 161.12 520.207 159.812 520.207 158.18L520.171 158.144ZM533.412 173.768C533.796 173.84 533.988 174.068 533.988 174.452V176H525.564V174.452C525.564 174.068 525.756 173.84 526.14 173.768L528.156 173.372V152.096C527.052 151.88 526.38 151.736 526.14 151.664C525.756 151.592 525.564 151.376 525.564 151.016V149.468H531.396V173.336C532.5 173.552 533.172 173.696 533.412 173.768ZM551.846 173.696C552.014 173.72 552.146 173.804 552.242 173.948C552.338 174.068 552.386 174.212 552.386 174.38V175.928H548.642C548.426 175.928 548.174 175.88 547.886 175.784C547.718 175.736 547.598 175.544 547.526 175.208L547.166 173.48L545.726 174.668C545.318 175.004 544.838 175.292 544.286 175.532C543.758 175.772 543.23 175.952 542.702 176.072C542.222 176.192 541.574 176.252 540.758 176.252C540.086 176.252 539.438 176.144 538.814 175.928C538.07 175.664 537.53 175.376 537.194 175.064C536.762 174.68 536.402 174.176 536.114 173.552C535.85 173 535.718 172.28 535.718 171.392C535.718 170.624 535.91 169.928 536.294 169.304C536.726 168.608 537.374 168.008 538.238 167.504C539.198 166.952 540.35 166.52 541.694 166.208C543.086 165.896 544.838 165.74 546.95 165.74V164.336C546.95 162.92 546.638 161.84 546.014 161.096C545.39 160.352 544.49 159.98 543.314 159.98C542.546 159.98 541.886 160.088 541.334 160.304C540.71 160.544 540.254 160.76 539.966 160.952C539.822 161.048 539.654 161.156 539.462 161.276C539.294 161.372 539.114 161.48 538.922 161.6C538.658 161.792 538.382 161.888 538.094 161.888C537.83 161.888 537.638 161.84 537.518 161.744C537.374 161.624 537.254 161.48 537.158 161.312L536.582 160.304C537.518 159.392 538.598 158.672 539.822 158.144C540.926 157.664 542.222 157.424 543.71 157.424C544.79 157.424 545.702 157.592 546.446 157.928C547.262 158.288 547.922 158.744 548.426 159.296C548.954 159.848 549.362 160.568 549.65 161.456C549.914 162.248 550.046 163.184 550.046 164.264V173.372C551.198 173.612 551.798 173.744 551.846 173.768V173.696ZM546.878 167.792C545.318 167.792 544.07 167.876 543.134 168.044C542.222 168.212 541.382 168.464 540.614 168.8C539.942 169.112 539.462 169.472 539.174 169.88C538.886 170.312 538.742 170.768 538.742 171.248C538.742 171.632 538.826 172.04 538.994 172.472C539.138 172.832 539.354 173.12 539.642 173.336C539.93 173.552 540.242 173.708 540.578 173.804C540.986 173.924 541.382 173.984 541.766 173.984C542.246 173.984 542.75 173.924 543.278 173.804C543.758 173.684 544.202 173.528 544.61 173.336C544.97 173.168 545.366 172.904 545.798 172.544C546.038 172.352 546.398 172.016 546.878 171.536V167.792ZM568.863 173.444C567.351 175.316 565.095 176.252 562.095 176.252C559.791 176.252 557.895 175.424 556.407 173.768C554.847 172.016 554.067 169.712 554.067 166.856C554.067 164.072 554.799 161.828 556.263 160.124C557.799 158.372 559.935 157.496 562.671 157.496C564.039 157.496 565.839 157.928 568.071 158.792V163.544H566.631C566.295 163.544 566.091 163.376 566.019 163.04C565.995 162.968 565.947 162.512 565.875 161.672L565.767 160.484C565.503 160.388 565.239 160.316 564.975 160.268C564.735 160.22 564.567 160.184 564.471 160.16C563.823 160.064 563.151 160.016 562.455 160.016C561.831 160.016 561.171 160.172 560.475 160.484C559.827 160.772 559.263 161.216 558.783 161.816C557.871 163.016 557.415 164.696 557.415 166.856C557.415 169.016 557.895 170.72 558.855 171.968C559.791 173.168 561.075 173.768 562.707 173.768C564.219 173.768 565.551 173.264 566.703 172.256C566.895 172.064 567.135 171.968 567.423 171.968C567.687 171.968 567.879 172.064 567.999 172.256L568.863 173.444ZM579.789 157.496C580.845 157.496 581.841 157.676 582.777 158.036C583.737 158.396 584.529 158.912 585.153 159.584C585.873 160.352 586.401 161.204 586.737 162.14C587.121 163.22 587.313 164.372 587.313 165.596C587.313 166.148 587.265 166.484 587.169 166.604C587.049 166.772 586.833 166.856 586.521 166.856H574.425C574.425 168.008 574.569 169.016 574.857 169.88C575.097 170.624 575.505 171.32 576.081 171.968C576.609 172.568 577.209 173 577.881 173.264C578.601 173.552 579.369 173.696 580.185 173.696C581.049 173.696 581.745 173.612 582.273 173.444C582.777 173.276 583.281 173.072 583.785 172.832C584.313 172.568 584.673 172.376 584.865 172.256C585.177 172.064 585.417 171.968 585.585 171.968C585.849 171.968 586.053 172.076 586.197 172.292L587.097 173.48C586.761 173.912 586.281 174.32 585.657 174.704C584.937 175.16 584.349 175.46 583.893 175.604C583.173 175.844 582.525 176.012 581.949 176.108C581.229 176.228 580.569 176.288 579.969 176.288C578.721 176.288 577.557 176.072 576.477 175.64C575.445 175.232 574.521 174.596 573.705 173.732C572.937 172.94 572.337 171.92 571.905 170.672C571.473 169.448 571.257 168.056 571.257 166.496C571.257 165.248 571.461 164.072 571.869 162.968C572.277 161.84 572.841 160.88 573.561 160.088C574.305 159.272 575.205 158.636 576.261 158.18C577.317 157.724 578.493 157.496 579.789 157.496ZM579.861 159.836C578.301 159.836 577.089 160.28 576.225 161.168C575.337 162.104 574.785 163.352 574.569 164.912H584.469C584.469 164.168 584.361 163.496 584.145 162.896C583.881 162.152 583.593 161.612 583.281 161.276C582.873 160.844 582.381 160.496 581.805 160.232C581.253 159.992 580.593 159.872 579.825 159.872L579.861 159.836ZM596.572 157.496C597.82 157.496 599.404 157.82 601.324 158.468V163.148H599.92C599.584 163.148 599.38 162.98 599.308 162.644L599.092 160.268C597.964 160.004 597.028 159.872 596.284 159.872H596.248C595.264 159.872 594.436 160.136 593.764 160.664C593.116 161.168 592.792 161.72 592.792 162.32C592.792 162.944 592.936 163.4 593.224 163.688C593.704 164.24 594.4 164.66 595.312 164.948L596.392 165.272C596.584 165.32 596.968 165.44 597.544 165.632L599.272 166.28C599.752 166.448 600.256 166.76 600.784 167.216C601.768 167.984 602.26 169.04 602.26 170.384C602.26 172.136 601.672 173.528 600.496 174.56C599.224 175.688 597.616 176.252 595.672 176.252C593.68 176.252 591.712 175.928 589.768 175.28V170.528H591.064C591.352 170.528 591.532 170.672 591.604 170.96L591.82 173.264C592.78 173.744 594.016 173.984 595.528 173.984C596.68 173.984 597.616 173.684 598.336 173.084C598.96 172.532 599.272 171.92 599.272 171.248C599.272 170.552 599.128 170.048 598.84 169.736C598.504 169.352 598.144 169.064 597.76 168.872C597.232 168.608 596.728 168.416 596.248 168.296C594.472 167.72 593.356 167.336 592.9 167.144C592.324 166.88 591.784 166.544 591.28 166.136C590.272 165.296 589.768 164.168 589.768 162.752C589.768 161.312 590.344 160.088 591.496 159.08C592.696 158.024 594.388 157.496 596.572 157.496Z" fill="#E8E8E8"/>
<path fill-rule="evenodd" clip-rule="evenodd" d="M501 38C527.51 38 549 59.4901 549 86C549 112.509 527.51 134 501 134C474.49 134 453 112.509 453 86C453 59.4901 474.49 38 501 38Z" fill="#333333"/>
<path fill-rule="evenodd" clip-rule="evenodd" d="M501 55.5469C505.124 55.5469 509.016 56.3203 512.672 57.867C516.328 59.4141 519.514 61.5476 522.234 64.2654C524.952 66.9858 527.086 70.1718 528.633 73.8282C530.18 77.4843 530.953 81.3757 530.953 85.5C530.953 89.6263 530.18 93.5154 528.633 97.1719C527.086 100.828 524.952 104.016 522.234 106.734C519.514 109.454 516.328 111.586 512.672 113.133C509.016 114.679 505.124 115.453 501 115.453C496.873 115.453 492.984 114.679 489.328 113.133C485.672 111.586 482.484 109.454 479.766 106.734C477.045 104.016 474.914 100.828 473.367 97.1719C471.82 93.5154 471.047 89.6263 471.047 85.5C471.047 81.3757 471.82 77.4843 473.367 73.8282C474.914 70.1718 477.045 66.9858 479.766 64.2654C482.484 61.5476 485.672 59.4141 489.328 57.867C492.984 56.3203 496.873 55.5469 501 55.5469ZM501 113.062C504.843 113.062 508.429 112.337 511.758 110.883C515.084 109.43 518.016 107.486 520.547 105.047C522.984 102.516 524.928 99.5867 526.383 96.2577C527.835 92.931 528.562 89.3451 528.562 85.5C528.562 81.657 527.835 78.0708 526.383 74.742C524.928 71.4153 522.984 68.4842 520.547 65.953C518.016 63.5162 515.084 61.5718 511.758 60.1172C508.429 58.6646 504.843 57.9373 501 57.9373C497.155 57.9373 493.569 58.6646 490.242 60.1172C486.913 61.5718 483.984 63.5162 481.453 65.953C479.014 68.4842 477.07 71.4153 475.617 74.742C474.163 78.0708 473.437 81.657 473.437 85.5C473.437 89.3451 474.163 92.931 475.617 96.2577C477.07 99.5867 479.014 102.516 481.453 105.047C483.984 107.486 486.913 109.43 490.242 110.883C493.569 112.337 497.155 113.062 501 113.062ZM516.047 74.8123C516.328 74.4389 516.726 74.25 517.242 74.25C517.756 74.25 518.202 74.4389 518.578 74.8123C518.859 75.1881 519 75.6341 519 76.1483C519 76.6646 518.811 77.0625 518.438 77.3438L497.906 97.3123C497.812 97.5013 497.647 97.6178 497.414 97.6639C497.179 97.7123 496.968 97.7342 496.781 97.7342C496.5 97.7342 496.241 97.7123 496.008 97.6639C495.773 97.6178 495.608 97.5013 495.516 97.3123L487.5 89.2967C487.124 88.9232 486.937 88.4772 486.937 87.9609C486.937 87.4467 487.124 87.0468 487.5 86.7655C487.781 86.392 488.179 86.2031 488.695 86.2031C489.209 86.2031 489.655 86.392 490.031 86.7655L496.781 93.5154L516.047 74.8123Z" fill="#FF6363"/>
</g>
<g clip-path="url(#clip1)">
<path d="M790.754 173.752C794.546 174.496 796.442 176.464 796.442 179.656C796.442 181.984 795.602 183.796 793.922 185.092C792.242 186.364 790.058 187 787.37 187H775.67V185.416C775.67 185.056 775.85 184.84 776.21 184.768L778.262 184.336V163.888L776.21 163.456C775.85 163.384 775.67 163.168 775.67 162.808V161.224H786.506C789.314 161.224 791.522 161.752 793.13 162.808C794.762 163.864 795.578 165.496 795.578 167.704C795.578 169.264 795.182 170.536 794.39 171.52C793.598 172.504 792.386 173.248 790.754 173.752ZM786.362 172.744C788.186 172.744 789.602 172.396 790.61 171.7C791.618 170.98 792.122 169.888 792.122 168.424C792.122 166.864 791.642 165.748 790.682 165.076C789.746 164.38 788.354 164.032 786.506 164.032H781.754V172.744H786.362ZM792.986 179.584C792.986 178.096 792.482 177.004 791.474 176.308C790.49 175.612 789.11 175.264 787.334 175.264H781.754V184.228H787.37C789.266 184.252 790.67 183.868 791.582 183.076C792.518 182.26 792.986 181.096 792.986 179.584ZM806.662 168.496C807.982 168.496 809.182 168.712 810.262 169.144C811.318 169.576 812.242 170.2 813.034 171.016C813.778 171.784 814.354 172.768 814.762 173.968C815.17 175.144 815.374 176.44 815.374 177.856C815.374 179.272 815.17 180.568 814.762 181.744C814.354 182.944 813.778 183.928 813.034 184.696C812.242 185.512 811.318 186.136 810.262 186.568C809.182 187 807.982 187.216 806.662 187.216C805.342 187.216 804.142 187 803.062 186.568C802.006 186.136 801.082 185.512 800.29 184.696C799.57 183.952 798.982 182.968 798.526 181.744C798.142 180.712 797.95 179.416 797.95 177.856C797.95 176.296 798.142 175 798.526 173.968C798.982 172.744 799.57 171.76 800.29 171.016C801.082 170.2 802.006 169.576 803.062 169.144C804.142 168.712 805.342 168.496 806.662 168.496ZM806.662 184.768C808.51 184.768 809.854 184.168 810.694 182.968C811.582 181.72 812.026 180.028 812.026 177.892C812.026 175.756 811.582 174.064 810.694 172.816C809.854 171.616 808.51 171.016 806.662 171.016C805.726 171.016 804.934 171.16 804.286 171.448C803.662 171.736 803.11 172.192 802.63 172.816C802.174 173.44 801.838 174.16 801.622 174.976C801.382 175.936 801.262 176.92 801.262 177.928C801.262 178.888 801.382 179.848 801.622 180.808C801.838 181.624 802.174 182.344 802.63 182.968C803.038 183.52 803.59 183.952 804.286 184.264C805.054 184.6 805.846 184.768 806.662 184.768ZM826.596 168.496C827.916 168.496 829.116 168.712 830.196 169.144C831.252 169.576 832.176 170.2 832.968 171.016C833.712 171.784 834.288 172.768 834.696 173.968C835.104 175.144 835.308 176.44 835.308 177.856C835.308 179.272 835.104 180.568 834.696 181.744C834.288 182.944 833.712 183.928 832.968 184.696C832.176 185.512 831.252 186.136 830.196 186.568C829.116 187 827.916 187.216 826.596 187.216C825.276 187.216 824.076 187 822.996 186.568C821.94 186.136 821.016 185.512 820.224 184.696C819.504 183.952 818.916 182.968 818.46 181.744C818.076 180.712 817.884 179.416 817.884 177.856C817.884 176.296 818.076 175 818.46 173.968C818.916 172.744 819.504 171.76 820.224 171.016C821.016 170.2 821.94 169.576 822.996 169.144C824.076 168.712 825.276 168.496 826.596 168.496ZM826.596 184.768C828.444 184.768 829.788 184.168 830.628 182.968C831.516 181.72 831.96 180.028 831.96 177.892C831.96 175.756 831.516 174.064 830.628 172.816C829.788 171.616 828.444 171.016 826.596 171.016C825.66 171.016 824.868 171.16 824.22 171.448C823.596 171.736 823.044 172.192 822.564 172.816C822.108 173.44 821.772 174.16 821.556 174.976C821.316 175.936 821.196 176.92 821.196 177.928C821.196 178.888 821.316 179.848 821.556 180.808C821.772 181.624 822.108 182.344 822.564 182.968C822.972 183.52 823.524 183.952 824.22 184.264C824.988 184.6 825.78 184.768 826.596 184.768ZM855.371 184.768C855.731 184.84 855.911 185.056 855.911 185.416V187H852.527C852.071 187 851.663 186.784 851.303 186.352L845.327 178.864C845.159 178.624 844.979 178.468 844.787 178.396C844.595 178.324 844.319 178.288 843.959 178.288H843.095V184.372C843.239 184.372 843.659 184.456 844.355 184.624L845.111 184.768C845.495 184.84 845.687 185.068 845.687 185.452V187H837.263V185.452C837.263 185.068 837.443 184.84 837.803 184.768L839.855 184.372V163.096C838.703 162.88 838.019 162.736 837.803 162.664C837.443 162.592 837.263 162.376 837.263 162.016V160.468H843.095V176.056H843.887C844.391 176.056 844.775 175.888 845.039 175.552L849.143 171.16C849.071 171.16 848.999 171.148 848.927 171.124C848.855 171.1 848.783 171.088 848.711 171.088L848.135 170.98C847.751 170.908 847.559 170.68 847.559 170.296V168.784H855.191V170.296C855.191 170.656 855.035 170.872 854.723 170.944L852.491 171.376L848.243 175.912C847.859 176.368 847.511 176.692 847.199 176.884C847.679 177.196 848.039 177.568 848.279 178L853.319 184.408L854.255 184.552C854.879 184.696 855.263 184.768 855.407 184.768H855.371ZM875.818 161.008C876.754 161.008 877.618 161.152 878.41 161.44C879.154 161.704 879.838 162.112 880.462 162.664C881.014 163.144 881.458 163.72 881.794 164.392C882.106 164.992 882.298 165.688 882.37 166.48L880.39 166.876L880.21 166.912C880.114 166.912 879.97 166.864 879.778 166.768C879.658 166.72 879.562 166.576 879.49 166.336C879.418 166.048 879.286 165.712 879.094 165.328C878.95 165.04 878.722 164.74 878.41 164.428C878.146 164.164 877.786 163.936 877.33 163.744C876.874 163.552 876.394 163.456 875.89 163.456C875.242 163.456 874.69 163.552 874.234 163.744C873.778 163.936 873.37 164.212 873.01 164.572C872.65 164.932 872.386 165.328 872.218 165.76C872.026 166.264 871.93 166.768 871.93 167.272C871.93 167.68 871.99 168.088 872.11 168.496C872.23 168.928 872.386 169.312 872.578 169.648C872.746 169.96 873.01 170.356 873.37 170.836C873.658 171.22 874.042 171.652 874.522 172.132L881.938 179.656C882.346 178.912 882.706 178.072 883.018 177.136C883.33 176.2 883.522 175.312 883.594 174.472C883.594 174.28 883.666 174.112 883.81 173.968C883.954 173.824 884.122 173.752 884.314 173.752H886.258C886.258 175.12 886.042 176.476 885.61 177.82C885.154 179.236 884.554 180.484 883.81 181.564L889.21 187.036H886.114C885.754 187.036 885.466 187 885.25 186.928C885.106 186.88 884.866 186.688 884.53 186.352L881.938 183.76C880.762 184.864 879.466 185.728 878.05 186.352C876.634 186.976 875.014 187.288 873.19 187.288C872.23 187.288 871.294 187.132 870.382 186.82C869.446 186.484 868.618 186.016 867.898 185.416C867.178 184.816 866.602 184.072 866.17 183.184C865.738 182.32 865.522 181.312 865.522 180.16C865.522 179.32 865.666 178.528 865.954 177.784C866.266 176.992 866.65 176.296 867.106 175.696C867.586 175.072 868.186 174.496 868.906 173.968C869.578 173.488 870.322 173.056 871.138 172.672C870.466 171.808 869.938 170.908 869.554 169.972C869.194 169.108 869.014 168.208 869.014 167.272C869.014 166.36 869.17 165.52 869.482 164.752C869.77 164.056 870.238 163.384 870.886 162.736C871.438 162.184 872.17 161.74 873.082 161.404C873.922 161.092 874.882 160.936 875.962 160.936L875.818 161.008ZM868.726 179.908C868.726 180.7 868.87 181.384 869.158 181.96C869.446 182.56 869.818 183.064 870.274 183.472C870.682 183.832 871.222 184.144 871.894 184.408C872.47 184.624 873.082 184.732 873.73 184.732C875.05 184.732 876.25 184.48 877.33 183.976C878.41 183.472 879.346 182.824 880.138 182.032L872.542 174.364C871.294 175.012 870.334 175.828 869.662 176.812C869.014 177.748 868.69 178.792 868.69 179.944L868.726 179.908ZM917.328 167.452H915.6C915.168 167.452 914.916 167.248 914.844 166.84L914.592 164.068H904.944V172.636H914.448V175.372H904.944V184.192H914.592L914.808 181.6C914.88 181.216 915.144 181.024 915.6 181.024H917.328V187H898.824V185.488C898.824 185.104 899.004 184.876 899.364 184.804L901.416 184.408V163.852C900.264 163.636 899.58 163.492 899.364 163.42C899.004 163.348 898.824 163.12 898.824 162.736V161.224H917.328V167.452ZM925.569 171.376C927.369 169.432 929.385 168.46 931.617 168.46C933.585 168.46 935.097 169.096 936.153 170.368C937.185 171.616 937.701 173.284 937.701 175.372V184.336C938.853 184.552 939.537 184.696 939.753 184.768C940.137 184.84 940.329 185.068 940.329 185.452V187H934.497V175.408C934.497 172.48 933.225 171.016 930.681 171.016C928.881 171.016 927.225 171.868 925.713 173.572V184.372C925.809 184.372 926.505 184.516 927.801 184.804C928.161 184.876 928.341 185.104 928.341 185.488V187H919.953V185.488C919.953 185.104 920.121 184.876 920.457 184.804L922.545 184.408V171.412C921.345 171.196 920.649 171.052 920.457 170.98C920.121 170.908 919.953 170.68 919.953 170.296V168.784H924.417C924.849 168.784 925.137 169 925.281 169.432L925.569 171.412V171.376ZM949.149 162.16C949.269 162.4 949.329 162.7 949.329 163.06C949.329 163.396 949.269 163.684 949.149 163.924C949.005 164.212 948.837 164.452 948.645 164.644C948.453 164.836 948.213 165.004 947.925 165.148C947.685 165.268 947.397 165.328 947.061 165.328C946.725 165.328 946.437 165.268 946.197 165.148C945.909 165.004 945.669 164.836 945.477 164.644C945.285 164.452 945.117 164.212 944.973 163.924C944.853 163.684 944.793 163.396 944.793 163.06C944.793 162.7 944.853 162.4 944.973 162.16C945.141 161.824 945.309 161.572 945.477 161.404C945.669 161.212 945.909 161.044 946.197 160.9C946.437 160.78 946.725 160.72 947.061 160.72C947.397 160.72 947.685 160.78 947.925 160.9C948.213 161.044 948.453 161.212 948.645 161.404C948.813 161.572 948.981 161.824 949.149 162.16ZM945.801 193.156C945.201 193.42 944.469 193.552 943.605 193.552C942.837 193.552 942.093 193.432 941.373 193.192L941.517 191.464C941.565 191.224 941.757 191.104 942.093 191.104H942.813C943.749 191.104 944.409 190.888 944.793 190.456C945.201 190 945.405 189.304 945.405 188.368V171.412C945.261 171.388 945.033 171.352 944.721 171.304C944.409 171.232 943.941 171.136 943.317 171.016C942.981 170.944 942.813 170.716 942.813 170.332V168.784H948.573V188.368C948.573 190.792 947.649 192.4 945.801 193.192V193.156ZM960.014 168.496C961.334 168.496 962.534 168.712 963.614 169.144C964.67 169.576 965.594 170.2 966.386 171.016C967.13 171.784 967.706 172.768 968.114 173.968C968.522 175.144 968.726 176.44 968.726 177.856C968.726 179.272 968.522 180.568 968.114 181.744C967.706 182.944 967.13 183.928 966.386 184.696C965.594 185.512 964.67 186.136 963.614 186.568C962.534 187 961.334 187.216 960.014 187.216C958.694 187.216 957.494 187 956.414 186.568C955.358 186.136 954.434 185.512 953.642 184.696C952.922 183.952 952.334 182.968 951.878 181.744C951.494 180.712 951.302 179.416 951.302 177.856C951.302 176.296 951.494 175 951.878 173.968C952.334 172.744 952.922 171.76 953.642 171.016C954.434 170.2 955.358 169.576 956.414 169.144C957.494 168.712 958.694 168.496 960.014 168.496ZM960.014 184.768C961.862 184.768 963.206 184.168 964.046 182.968C964.934 181.72 965.378 180.028 965.378 177.892C965.378 175.756 964.934 174.064 964.046 172.816C963.206 171.616 961.862 171.016 960.014 171.016C959.078 171.016 958.286 171.16 957.638 171.448C957.014 171.736 956.462 172.192 955.982 172.816C955.526 173.44 955.19 174.16 954.974 174.976C954.734 175.936 954.614 176.92 954.614 177.928C954.614 178.888 954.734 179.848 954.974 180.808C955.19 181.624 955.526 182.344 955.982 182.968C956.39 183.52 956.942 183.952 957.638 184.264C958.406 184.6 959.198 184.768 960.014 184.768ZM989.808 170.296C989.808 170.656 989.628 170.872 989.268 170.944C989.172 170.944 989.028 170.968 988.836 171.016C988.668 171.064 988.488 171.112 988.296 171.16L987.396 171.34L978.36 192.364C978.264 192.604 978.108 192.796 977.892 192.94C977.7 193.084 977.472 193.156 977.208 193.156H974.832L978.144 185.92L971.736 171.304C971.016 171.184 970.476 171.064 970.116 170.944C969.756 170.872 969.576 170.656 969.576 170.296V168.748H977.748V170.296C977.748 170.656 977.568 170.872 977.208 170.944C976.968 171.016 976.296 171.16 975.192 171.376L979.26 180.88C979.38 181.144 979.476 181.456 979.548 181.816C979.644 182.176 979.704 182.416 979.728 182.536C979.896 181.96 980.088 181.408 980.304 180.88L984.228 171.376C984.228 171.376 983.568 171.244 982.248 170.98C981.912 170.908 981.744 170.68 981.744 170.296V168.784H988.512L989.808 168.748V170.296Z" fill="#E8E8E8"/>
<path fill-rule="evenodd" clip-rule="evenodd" d="M881 38C907.51 38 929 59.4901 929 86C929 112.509 907.51 134 881 134C854.49 134 833 112.509 833 86C833 59.4901 854.49 38 881 38Z" fill="#333333"/>
<path fill-rule="evenodd" clip-rule="evenodd" d="M911.586 84.656C911.586 85.3131 911.491 85.9217 911.305 86.4841C911.116 87.0467 910.834 87.563 910.461 88.0311C910.085 88.5014 909.663 88.8748 909.195 89.1561C908.725 89.4374 908.211 89.6724 907.648 89.8592C907.93 90.3294 908.163 90.8217 908.352 91.3357C908.538 91.8523 908.633 92.4388 908.633 93.0936C908.633 93.6562 908.538 94.2185 908.352 94.7811C908.163 95.3437 907.93 95.86 907.648 96.3279C907.273 96.7036 906.851 97.0552 906.383 97.3826C905.913 97.7122 905.445 97.9693 904.977 98.1562C905.258 98.6264 905.491 99.1404 905.68 99.703C905.866 100.266 905.961 100.828 905.961 101.391C905.961 102.047 905.866 102.634 905.68 103.148C905.491 103.665 905.258 104.157 904.977 104.625C904.601 105.095 904.179 105.493 903.711 105.82C903.241 106.15 902.726 106.361 902.164 106.453C902.538 106.923 902.819 107.415 903.008 107.929C903.195 108.446 903.289 109.032 903.289 109.687C903.289 110.344 903.148 111.001 902.867 111.656C902.586 112.313 902.21 112.876 901.742 113.344C901.18 113.814 900.569 114.187 899.914 114.469C899.257 114.75 898.554 114.89 897.805 114.89H879.242C878.585 114.89 877.836 114.798 876.992 114.609C876.148 114.423 875.256 114.141 874.32 113.765C873.382 113.484 872.444 113.133 871.508 112.711C870.57 112.289 869.631 111.891 868.695 111.515C867.57 111.047 866.467 110.58 865.391 110.109C864.312 109.641 863.538 109.406 863.07 109.406H850.273V81.9843L851.398 81.8435C856.742 81.8435 860.398 81.8435 862.367 81.8435C863.211 81.8435 863.984 81.7513 864.688 81.5622C865.391 81.3756 866.116 80.9999 866.867 80.4373C867.711 79.9693 868.671 79.3123 869.75 78.4687C870.827 77.6247 872.116 76.5943 873.617 75.3749C876.522 72.9381 878.234 69.8904 878.75 66.2342C879.264 62.5781 879.523 60.4687 879.523 59.9061C879.523 59.3435 879.664 58.8053 879.945 58.2888C880.227 57.7748 880.6 57.3749 881.07 57.0935C881.538 56.7201 882.03 56.4607 882.547 56.3202C883.061 56.1794 883.553 56.1091 884.023 56.1091C884.773 56.1091 885.522 56.2036 886.273 56.3905C887.023 56.5793 887.726 57.0014 888.383 57.6562C889.038 58.313 889.554 59.181 889.93 60.2576C890.303 61.3365 890.492 62.767 890.492 64.5467C890.492 66.1418 890.374 67.6647 890.141 69.117C889.906 70.5716 889.6 71.9537 889.227 73.2655C888.945 74.5793 888.594 75.7748 888.172 76.8514C887.75 77.9302 887.398 78.8444 887.117 79.5936H906.242C907.086 79.5936 907.811 79.7122 908.422 79.9452C909.031 80.1802 909.617 80.5317 910.18 80.9999C910.648 81.4701 910.999 82.0084 911.234 82.6169C911.467 83.2279 911.586 83.9068 911.586 84.656ZM906.242 87.6093C906.71 87.6093 907.132 87.5388 907.508 87.3983C907.881 87.2577 908.163 87.0467 908.352 86.7654C908.633 86.4841 908.866 86.1809 909.055 85.8515C909.241 85.5241 909.336 85.1262 909.336 84.656C909.336 83.9068 909.055 83.2498 908.492 82.6874C907.93 82.1248 907.178 81.8435 906.242 81.8435H897.805C897.805 81.9379 897.805 81.9379 897.805 81.8435H883.32L884.164 80.1559C886.788 73.6873 888.102 68.4841 888.102 64.5467C888.102 61.4529 887.585 59.649 886.555 59.1327C885.522 58.6184 884.678 58.3593 884.023 58.3593C883.742 58.3593 883.32 58.4998 882.758 58.7811C882.195 59.0624 881.914 59.4382 881.914 59.9061C881.914 60.4687 881.866 61.4068 881.773 62.7186C881.679 64.0327 881.398 65.5311 880.93 67.2186C880.459 68.9062 879.781 70.6419 878.891 72.4218C877.999 74.2036 876.757 75.7506 875.164 77.0624C873.569 78.3763 872.233 79.477 871.156 80.367C870.077 81.259 869.069 81.9843 868.133 82.5467C867.195 83.1093 866.256 83.5311 865.32 83.8124C864.382 84.0937 863.398 84.2342 862.367 84.2342C861.616 84.2342 860.796 84.2342 859.906 84.2342C859.014 84.2342 858.1 84.2342 857.164 84.2342C856.32 84.2342 855.498 84.2342 854.703 84.2342C853.905 84.2342 853.227 84.2342 852.664 84.2342V107.016H863.07C863.725 107.016 864.593 107.226 865.672 107.648C866.749 108.07 868.084 108.611 869.68 109.265C870.429 109.641 871.249 110.039 872.141 110.461C873.03 110.883 873.898 111.234 874.742 111.515C875.678 111.797 876.522 112.056 877.273 112.289C878.023 112.524 878.68 112.641 879.242 112.641H894.852H897.805C898.273 112.641 898.695 112.548 899.07 112.359C899.444 112.172 899.773 111.937 900.055 111.656C900.336 111.469 900.547 111.188 900.687 110.812C900.828 110.439 900.898 110.063 900.898 109.687C900.898 109.219 900.828 108.822 900.687 108.492C900.547 108.165 900.336 107.859 900.055 107.578C899.773 107.297 899.444 107.086 899.07 106.945C898.695 106.805 898.273 106.734 897.805 106.734H897.523V104.344H900.758C901.131 104.344 901.507 104.273 901.883 104.133C902.256 103.992 902.586 103.781 902.867 103.5C903.054 103.219 903.241 102.891 903.43 102.515C903.616 102.142 903.711 101.766 903.711 101.391C903.711 101.017 903.616 100.641 903.43 100.266C903.241 99.8919 903.054 99.5625 902.867 99.2811C902.586 99.0943 902.256 98.9075 901.883 98.7185C901.507 98.5319 901.131 98.4373 900.758 98.4373H899.773V96.0468H903.289C903.663 96.0468 904.038 95.9763 904.414 95.8358C904.788 95.6953 905.117 95.4842 905.398 95.2029C905.68 94.9216 905.913 94.5942 906.102 94.2185C906.288 93.845 906.383 93.4693 906.383 93.0936C906.383 92.6256 906.288 92.2038 906.102 91.828C905.913 91.4544 905.68 91.1733 905.398 90.9842C905.117 90.7028 904.788 90.4702 904.414 90.281C904.038 90.0944 903.663 89.9998 903.289 89.9998H902.164V87.6093H906.242Z" fill="#00A2FF"/>
</g>
<defs>
<clipPath id="clip0">
<rect x="402" y="36" width="200" height="161" fill="white"/>
</clipPath>
<clipPath id="clip1">
<rect x="775" y="36" width="215" height="174" fill="white"/>
</clipPath>
</defs>
</svg>
